<!-- 星河的银河与北斗（b 层，贴在页面左上）：斜着的模糊光带、带里更密的星点、一组用细线连起的北斗七星。由 scripts/gen-paper-art.mjs 生成，只作遮罩，颜色见 papers.css -->
<svg xmlns="http://www.w3.org/2000/svg" viewBox="0 0 400 400">
<filter id="b" x="-20%" y="-60%" width="140%" height="220%"><feGaussianBlur stdDeviation="16"/></filter>
<ellipse cx="200" cy="175" rx="250" ry="30" transform="rotate(-35 200 175)" fill-opacity="0.45" filter="url(#b)"/>
<path fill-opacity="0.8" d="M321.5 89.5a.4 .4 0 1 0 -.8 0a.4 .4 0 1 0 .8 0ZM82.3 244.5a.4 .4 0 1 0 -.7 0a.4 .4 0 1 0 .7 0ZM65.4 277.9a.7 .7 0 1 0 -1.4 0a.7 .7 0 1 0 1.4 0ZM236.8 133.8a.3 .3 0 1 0 -.7 0a.3 .3 0 1 0 .7 0ZM55.4 271.4a.8 .8 0 1 0 -1.6 0a.8 .8 0 1 0 1.6 0ZM25.6 308.8a.7 .7 0 1 0 -1.5 0a.7 .7 0 1 0 1.5 0ZM283.6 124.1a.4 .4 0 1 0 -.7 0a.4 .4 0 1 0 .7 0ZM339.5 69.1a.3 .3 0 1 0 -.7 0a.3 .3 0 1 0 .7 0ZM85.2 272a.3 .3 0 1 0 -.6 0a.3 .3 0 1 0 .6 0ZM154.2 234.1a.4 .4 0 1 0 -.9 0a.4 .4 0 1 0 .9 0ZM364.3 54a.4 .4 0 1 0 -.7 0a.4 .4 0 1 0 .7 0ZM373.3 44.6a.8 .8 0 1 0 -1.6 0a.8 .8 0 1 0 1.6 0ZM75.1 283.1a.6 .6 0 1 0 -1.2 0a.6 .6 0 1 0 1.2 0ZM12.5 276.3a.5 .5 0 1 0 -1 0a.5 .5 0 1 0 1 0ZM86.1 270.8a.3 .3 0 1 0 -.6 0a.3 .3 0 1 0 .6 0ZM66 268a.4 .4 0 1 0 -.7 0a.4 .4 0 1 0 .7 0ZM161.3 218.4a.3 .3 0 1 0 -.6 0a.3 .3 0 1 0 .6 0ZM161.2 219.1a.9 .9 0 1 0 -1.8 0a.9 .9 0 1 0 1.8 0ZM318.1 98.9a.3 .3 0 1 0 -.6 0a.3 .3 0 1 0 .6 0ZM244.4 138.1a.4 .4 0 1 0 -.8 0a.4 .4 0 1 0 .8 0ZM105.3 232.7a.4 .4 0 1 0 -.9 0a.4 .4 0 1 0 .9 0ZM97.2 255a.8 .8 0 1 0 -1.6 0a.8 .8 0 1 0 1.6 0ZM342.9 90.5a.6 .6 0 1 0 -1.1 0a.6 .6 0 1 0 1.1 0ZM117.3 214.1a.3 .3 0 1 0 -.7 0a.3 .3 0 1 0 .7 0ZM223.3 177.9a.3 .3 0 1 0 -.6 0a.3 .3 0 1 0 .6 0ZM257.1 117.8a.9 .9 0 1 0 -1.9 0a.9 .9 0 1 0 1.9 0ZM279.8 140.2a.5 .5 0 1 0 -1 0a.5 .5 0 1 0 1 0ZM171.6 211.8a.3 .3 0 1 0 -.6 0a.3 .3 0 1 0 .6 0ZM120.7 247.3a.7 .7 0 1 0 -1.5 0a.7 .7 0 1 0 1.5 0ZM143.6 217.6a.3 .3 0 1 0 -.6 0a.3 .3 0 1 0 .6 0ZM209.2 170.9a.9 .9 0 1 0 -1.8 0a.9 .9 0 1 0 1.8 0ZM180.7 192.1a.3 .3 0 1 0 -.6 0a.3 .3 0 1 0 .6 0ZM310.5 93.7a.5 .5 0 1 0 -1 0a.5 .5 0 1 0 1 0ZM115.7 230.8a.4 .4 0 1 0 -.7 0a.4 .4 0 1 0 .7 0ZM101 236.4a.6 .6 0 1 0 -1.1 0a.6 .6 0 1 0 1.1 0ZM185.8 152.9a.7 .7 0 1 0 -1.3 0a.7 .7 0 1 0 1.3 0ZM291.6 134.5a.8 .8 0 1 0 -1.6 0a.8 .8 0 1 0 1.6 0ZM295.6 101.4a.4 .4 0 1 0 -.9 0a.4 .4 0 1 0 .9 0ZM115.3 275.4a.4 .4 0 1 0 -.8 0a.4 .4 0 1 0 .8 0ZM214.7 173.4a.8 .8 0 1 0 -1.5 0a.8 .8 0 1 0 1.5 0ZM228.9 159.8a.9 .9 0 1 0 -1.8 0a.9 .9 0 1 0 1.8 0ZM49.7 276.4a.3 .3 0 1 0 -.6 0a.3 .3 0 1 0 .6 0ZM88.8 256.8a.4 .4 0 1 0 -.7 0a.4 .4 0 1 0 .7 0ZM243.7 138.3a.4 .4 0 1 0 -.8 0a.4 .4 0 1 0 .8 0ZM218.3 147.1a1 1 0 1 0 -2 0a1 1 0 1 0 2 0ZM175.3 166.7a.5 .5 0 1 0 -1.1 0a.5 .5 0 1 0 1.1 0ZM207.6 183.1a.7 .7 0 1 0 -1.5 0a.7 .7 0 1 0 1.5 0ZM160.1 227.4a.6 .6 0 1 0 -1.1 0a.6 .6 0 1 0 1.1 0ZM65.2 273.1a.4 .4 0 1 0 -.7 0a.4 .4 0 1 0 .7 0ZM210.9 167.8a.5 .5 0 1 0 -1.1 0a.5 .5 0 1 0 1.1 0ZM39.1 273.4a.8 .8 0 1 0 -1.5 0a.8 .8 0 1 0 1.5 0ZM279.7 116.6a.6 .6 0 1 0 -1.3 0a.6 .6 0 1 0 1.3 0ZM74.5 247.4a.5 .5 0 1 0 -.9 0a.5 .5 0 1 0 .9 0ZM188.3 201.8a.8 .8 0 1 0 -1.7 0a.8 .8 0 1 0 1.7 0ZM28.6 269.5a.6 .6 0 1 0 -1.1 0a.6 .6 0 1 0 1.1 0ZM253.6 113.9a.4 .4 0 1 0 -.7 0a.4 .4 0 1 0 .7 0ZM102.8 255.6a1 1 0 1 0 -1.9 0a1 1 0 1 0 1.9 0ZM244.4 137a.8 .8 0 1 0 -1.6 0a.8 .8 0 1 0 1.6 0ZM115.3 225.2a.3 .3 0 1 0 -.6 0a.3 .3 0 1 0 .6 0ZM23.6 298.2a.6 .6 0 1 0 -1.1 0a.6 .6 0 1 0 1.1 0ZM283.5 120.5a.5 .5 0 1 0 -1.1 0a.5 .5 0 1 0 1.1 0ZM77.4 243.2a.4 .4 0 1 0 -.8 0a.4 .4 0 1 0 .8 0ZM281 132.5a.7 .7 0 1 0 -1.4 0a.7 .7 0 1 0 1.4 0ZM167.2 221.2a.8 .8 0 1 0 -1.7 0a.8 .8 0 1 0 1.7 0ZM172.4 204.4a.5 .5 0 1 0 -1 0a.5 .5 0 1 0 1 0ZM322.9 78.8a.5 .5 0 1 0 -1 0a.5 .5 0 1 0 1 0ZM149.4 214.6a.4 .4 0 1 0 -.8 0a.4 .4 0 1 0 .8 0ZM135.7 189.4a.5 .5 0 1 0 -.9 0a.5 .5 0 1 0 .9 0ZM32.9 283.2a.3 .3 0 1 0 -.6 0a.3 .3 0 1 0 .6 0ZM112.9 240.7a.7 .7 0 1 0 -1.4 0a.7 .7 0 1 0 1.4 0Z"/>
<path d="M212 58L246 70L276 78L305 90L311 118L350 124L356 92L305 90" fill="none" stroke="#000" stroke-width="0.6" stroke-opacity="0.5"/>
<path d="M214 58a2 2 0 1 0 -4 0a2 2 0 1 0 4 0ZM248 70a2 2 0 1 0 -4 0a2 2 0 1 0 4 0ZM278 78a2 2 0 1 0 -4 0a2 2 0 1 0 4 0ZM306.5 90a1.5 1.5 0 1 0 -3 0a1.5 1.5 0 1 0 3 0ZM313 118a2 2 0 1 0 -4 0a2 2 0 1 0 4 0ZM352 124a2 2 0 1 0 -4 0a2 2 0 1 0 4 0ZM358 92a2 2 0 1 0 -4 0a2 2 0 1 0 4 0Z"/>
</svg>
