<!-- 豆青的花笺：从右侧探进来一枝竹子，枝头两簇竹叶。竹枝与竹叶取偏灰的深绿，与豆青纸同一色相 -->
<svg xmlns="http://www.w3.org/2000/svg" viewBox="0 0 240 240">
  <defs>
    <!-- 一片竹叶：细长、两头尖，从原点沿 +y 方向长出，长 50 -->
    <path id="l" d="M0 0C3.6 9 3.4 30 0 50C-3.4 30-3.6 9 0 0Z"/>
  </defs>
  <g opacity="0.24">
    <g fill="none" stroke="#56735c" stroke-linecap="round">
      <path d="M246 96C226 104 208 118 192 140C182 154 176 168 172 184" stroke-width="1.7"/>
      <path d="M208 118C200 104 196 92 196 78" stroke-width="1.2"/>
      <path d="M203 122l7-5" stroke-width="1.4"/>
    </g>
    <g fill="#4f7a5a">
      <use href="#l" transform="translate(172 184) rotate(18) scale(1.05)"/>
      <use href="#l" transform="translate(172 184) rotate(44) scale(0.92)"/>
      <use href="#l" transform="translate(172 184) rotate(-8) scale(0.8)"/>
      <use href="#l" transform="translate(196 78) rotate(150) scale(0.78)"/>
      <use href="#l" transform="translate(196 78) rotate(122) scale(0.9)"/>
      <use href="#l" transform="translate(196 78) rotate(176) scale(0.66)"/>
    </g>
  </g>
</svg>
